<mxfile host="app.diagrams.net" modified="2023-05-17T06:43:28.979Z" agent="Mozilla/5.0 (Windows NT 10.0; Win64; x64) AppleWebKit/537.36 (KHTML, like Gecko) Chrome/113.0.0.0 Safari/537.36" etag="kUKkwiVL4P33_B1S1iuZ" version="21.3.2" type="device">
  <diagram name="Page-1" id="WWdzehznW7bJtce3udSF">
    <mxGraphModel dx="794" dy="430" grid="1" gridSize="10" guides="1" tooltips="1" connect="1" arrows="1" fold="1" page="1" pageScale="1" pageWidth="827" pageHeight="1169" math="0" shadow="0">
      <root>
        <mxCell id="0" />
        <mxCell id="1" parent="0" />
        <mxCell id="i5eqcJ5Zo3YkJOCeAKsi-4" value="" style="edgeStyle=orthogonalEdgeStyle;rounded=0;orthogonalLoop=1;jettySize=auto;html=1;" parent="1" source="i5eqcJ5Zo3YkJOCeAKsi-1" target="i5eqcJ5Zo3YkJOCeAKsi-3" edge="1">
          <mxGeometry relative="1" as="geometry" />
        </mxCell>
        <mxCell id="i5eqcJ5Zo3YkJOCeAKsi-1" value="" style="strokeWidth=2;html=1;shape=mxgraph.flowchart.start_2;whiteSpace=wrap;" parent="1" vertex="1">
          <mxGeometry x="350" y="30" width="80" height="80" as="geometry" />
        </mxCell>
        <mxCell id="i5eqcJ5Zo3YkJOCeAKsi-7" value="" style="edgeStyle=orthogonalEdgeStyle;rounded=0;orthogonalLoop=1;jettySize=auto;html=1;" parent="1" source="i5eqcJ5Zo3YkJOCeAKsi-3" target="i5eqcJ5Zo3YkJOCeAKsi-6" edge="1">
          <mxGeometry relative="1" as="geometry" />
        </mxCell>
        <mxCell id="i5eqcJ5Zo3YkJOCeAKsi-3" value="Complete name, surname, nickname, password" style="whiteSpace=wrap;html=1;strokeWidth=2;" parent="1" vertex="1">
          <mxGeometry x="330" y="160" width="120" height="60" as="geometry" />
        </mxCell>
        <mxCell id="i5eqcJ5Zo3YkJOCeAKsi-9" value="" style="edgeStyle=orthogonalEdgeStyle;rounded=0;orthogonalLoop=1;jettySize=auto;html=1;" parent="1" source="i5eqcJ5Zo3YkJOCeAKsi-6" target="i5eqcJ5Zo3YkJOCeAKsi-8" edge="1">
          <mxGeometry relative="1" as="geometry">
            <Array as="points">
              <mxPoint x="200" y="310" />
            </Array>
          </mxGeometry>
        </mxCell>
        <mxCell id="NpohxepsRh5eTeAc0ICK-5" value="" style="edgeStyle=orthogonalEdgeStyle;rounded=0;orthogonalLoop=1;jettySize=auto;html=1;" edge="1" parent="1" source="i5eqcJ5Zo3YkJOCeAKsi-6" target="NpohxepsRh5eTeAc0ICK-4">
          <mxGeometry relative="1" as="geometry" />
        </mxCell>
        <mxCell id="i5eqcJ5Zo3YkJOCeAKsi-6" value="Is nickname used?" style="rhombus;whiteSpace=wrap;html=1;strokeWidth=2;" parent="1" vertex="1">
          <mxGeometry x="330" y="270" width="120" height="80" as="geometry" />
        </mxCell>
        <mxCell id="i5eqcJ5Zo3YkJOCeAKsi-10" style="edgeStyle=orthogonalEdgeStyle;rounded=0;orthogonalLoop=1;jettySize=auto;html=1;exitX=0.5;exitY=0;exitDx=0;exitDy=0;entryX=0;entryY=0.5;entryDx=0;entryDy=0;" parent="1" source="i5eqcJ5Zo3YkJOCeAKsi-8" target="i5eqcJ5Zo3YkJOCeAKsi-3" edge="1">
          <mxGeometry relative="1" as="geometry" />
        </mxCell>
        <mxCell id="i5eqcJ5Zo3YkJOCeAKsi-8" value="Display error" style="whiteSpace=wrap;html=1;strokeWidth=2;" parent="1" vertex="1">
          <mxGeometry x="140" y="210" width="120" height="60" as="geometry" />
        </mxCell>
        <mxCell id="i5eqcJ5Zo3YkJOCeAKsi-11" value="YES" style="text;html=1;strokeColor=none;fillColor=none;align=center;verticalAlign=middle;whiteSpace=wrap;rounded=0;" parent="1" vertex="1">
          <mxGeometry x="270" y="280" width="60" height="30" as="geometry" />
        </mxCell>
        <mxCell id="i5eqcJ5Zo3YkJOCeAKsi-14" value="NO" style="text;html=1;strokeColor=none;fillColor=none;align=center;verticalAlign=middle;whiteSpace=wrap;rounded=0;" parent="1" vertex="1">
          <mxGeometry x="470" y="240" width="60" height="30" as="geometry" />
        </mxCell>
        <mxCell id="i5eqcJ5Zo3YkJOCeAKsi-15" value="" style="ellipse;html=1;shape=endState;fillColor=#000000;strokeColor=#ff0000;" parent="1" vertex="1">
          <mxGeometry x="565" y="420" width="50" height="50" as="geometry" />
        </mxCell>
        <mxCell id="NpohxepsRh5eTeAc0ICK-6" style="edgeStyle=orthogonalEdgeStyle;rounded=0;orthogonalLoop=1;jettySize=auto;html=1;entryX=0.5;entryY=0;entryDx=0;entryDy=0;" edge="1" parent="1" source="NpohxepsRh5eTeAc0ICK-4" target="i5eqcJ5Zo3YkJOCeAKsi-15">
          <mxGeometry relative="1" as="geometry" />
        </mxCell>
        <mxCell id="NpohxepsRh5eTeAc0ICK-4" value="New user is added to database with status REQUESTED" style="whiteSpace=wrap;html=1;strokeWidth=2;" vertex="1" parent="1">
          <mxGeometry x="530" y="280" width="120" height="60" as="geometry" />
        </mxCell>
      </root>
    </mxGraphModel>
  </diagram>
</mxfile>
